<svg width="456" height="304" xmlns="http://www.w3.org/2000/svg" xmlns:xlink="http://www.w3.org/1999/xlink" xml:space="preserve" overflow="hidden"><defs><clipPath id="clip0"><rect x="0" y="0" width="456" height="304"/></clipPath></defs><g clip-path="url(#clip0)"><path d="M0 0 455.822 0 455.822 303.881 0 303.881Z" fill="#FFFFFF" transform="matrix(1 0 0 1.00039 0.0890625 0)"/><path d="M6.17259e-14 5.22296e-14 455.822 5.22296e-14 455.822 303.881 0 303.881Z" stroke="#FFFFFF" stroke-width="0.508051" stroke-linecap="round" stroke-linejoin="round" stroke-miterlimit="10" fill="#FFFFFF" transform="matrix(1 0 0 1.00039 0.0890625 0)"/><g><path d="M20.2081 18.5083 453.22 18.5083 453.22 282.187 20.2081 282.187Z" fill="#FFFFFF" transform="matrix(1 0 0 1.00039 0.0890625 0)"/><path d="M20.2081 282.187 453.22 282.187" stroke="#EBEBEB" stroke-width="0.508051" stroke-linejoin="round" stroke-miterlimit="10" fill="none" transform="matrix(1 0 0 1.00039 0.0890625 0)"/><path d="M20.2081 245.868 453.22 245.868" stroke="#EBEBEB" stroke-width="0.508051" stroke-linejoin="round" stroke-miterlimit="10" fill="none" transform="matrix(1 0 0 1.00039 0.0890625 0)"/><path d="M20.2081 209.545 453.22 209.545" stroke="#EBEBEB" stroke-width="0.508051" stroke-linejoin="round" stroke-miterlimit="10" fill="none" transform="matrix(1 0 0 1.00039 0.0890625 0)"/><path d="M20.2081 173.227 453.22 173.227" stroke="#EBEBEB" stroke-width="0.508051" stroke-linejoin="round" stroke-miterlimit="10" fill="none" transform="matrix(1 0 0 1.00039 0.0890625 0)"/><path d="M20.2081 136.908 453.22 136.908" stroke="#EBEBEB" stroke-width="0.508051" stroke-linejoin="round" stroke-miterlimit="10" fill="none" transform="matrix(1 0 0 1.00039 0.0890625 0)"/><path d="M20.2081 100.589 453.22 100.589" stroke="#EBEBEB" stroke-width="0.508051" stroke-linejoin="round" stroke-miterlimit="10" fill="none" transform="matrix(1 0 0 1.00039 0.0890625 0)"/><path d="M20.2081 64.2709 453.22 64.2709" stroke="#EBEBEB" stroke-width="0.508051" stroke-linejoin="round" stroke-miterlimit="10" fill="none" transform="matrix(1 0 0 1.00039 0.0890625 0)"/><path d="M20.2081 27.9476 453.22 27.9476" stroke="#EBEBEB" stroke-width="0.508051" stroke-linejoin="round" stroke-miterlimit="10" fill="none" transform="matrix(1 0 0 1.00039 0.0890625 0)"/><path d="M20.2081 144.899 34.1771 147.805 48.1462 147.805 62.1152 147.805 76.0843 145.626 90.0486 147.079 104.018 143.446 117.987 146.352 131.956 147.079 145.925 147.805 159.889 150.711 173.858 155.796 187.827 157.976 201.796 155.796 215.765 154.343 229.729 153.617 243.699 155.796 257.668 157.249 271.637 160.881 285.606 161.608 299.57 160.155 313.539 161.608 327.508 163.056 341.477 163.783 355.441 161.608 369.41 160.155 383.379 160.881 397.348 160.881 411.318 163.056 425.282 163.783 439.251 165.235" stroke="#28A197" stroke-width="2.02746" stroke-linejoin="round" stroke-miterlimit="10" fill="none" transform="matrix(1 0 0 1.00039 0.0890625 0)"/><path d="M20.2081 277.828 34.1771 277.828 48.1462 277.828 62.1152 277.828 76.0843 277.828 90.0486 277.828 104.018 277.102 117.987 277.102 131.956 276.375 145.925 276.375 159.889 277.102 173.858 277.102 187.827 277.102 201.796 277.102 215.765 277.102 229.729 277.102 243.699 277.102 257.668 277.102 271.637 277.102 285.606 277.102 299.57 277.102 313.539 277.102 327.508 277.102 341.477 277.102 355.441 277.102 369.41 277.102 383.379 277.102 397.348 277.102 411.318 277.102 425.282 277.102 439.251 277.102" stroke="#505A5F" stroke-width="2.02746" stroke-linejoin="round" stroke-miterlimit="10" fill="none" transform="matrix(1 0 0 1.00039 0.0890625 0)"/><path d="M20.2081 244.415 34.1771 244.415 48.1462 242.963 62.1152 242.963 76.0843 244.415 90.0486 244.415 104.018 245.142 117.987 243.689 131.956 242.963 145.925 242.963 159.889 244.415 173.858 248.774 187.827 249.501 201.796 249.501 215.765 249.501 229.729 250.227 243.699 251.68 257.668 251.68 271.637 253.133 285.606 253.86 299.57 254.581 313.539 253.86 327.508 253.133 341.477 253.133 355.441 251.68 369.41 251.68 383.379 251.68 397.348 250.954 411.318 251.68 425.282 250.954 439.251 251.68" stroke="#801650" stroke-width="2.02746" stroke-linejoin="round" stroke-miterlimit="10" fill="none" transform="matrix(1 0 0 1.00039 0.0890625 0)"/><path d="M20.2081 251.68 34.1771 252.407 48.1462 252.407 62.1152 251.68 76.0843 251.68 90.0486 251.68 104.018 250.954 117.987 250.954 131.956 250.954 145.925 251.68 159.889 252.407 173.858 253.86 187.827 253.86 201.796 253.86 215.765 253.86 229.729 253.86 243.699 253.86 257.668 253.86 271.637 254.581 285.606 255.308 299.57 254.581 313.539 254.581 327.508 254.581 341.477 254.581 355.441 253.86 369.41 253.86 383.379 253.86 397.348 253.86 411.318 254.581 425.282 254.581 439.251 254.581" stroke="#F46A25" stroke-width="2.02746" stroke-linejoin="round" stroke-miterlimit="10" fill="none" transform="matrix(1 0 0 1.00039 0.0890625 0)"/><path d="M20.2081 71.5355 34.1771 73.7102 48.1462 72.9837 62.1152 72.9837 76.0843 72.2573 90.0486 73.7102 104.018 70.0826 117.987 71.5355 131.956 70.8091 145.925 72.2573 159.889 78.069 173.858 88.2395 187.827 91.1454 201.796 89.6924 215.765 88.2395 229.729 88.2395 243.699 91.8718 257.668 93.3248 271.637 99.1365 285.606 101.316 299.57 99.863 313.539 100.589 327.508 101.316 341.477 102.042 355.441 97.6836 369.41 96.9571 383.379 97.6836 397.348 96.9571 411.318 99.863 425.282 99.863 439.251 102.042" stroke="#12436D" stroke-width="2.02746" stroke-linejoin="round" stroke-miterlimit="10" fill="none" transform="matrix(1 0 0 1.00039 0.0890625 0)"/><path d="M263.422 91.6392 447.465 91.6392 447.422 91.6344 447.589 91.6297 447.75 91.5965 447.902 91.5395 448.044 91.454 448.173 91.3495 448.282 91.2261 448.372 91.0884 448.439 90.9365 448.477 90.775 448.491 90.6136 448.491 90.6136 448.491 81.5114 448.491 81.5114 448.477 81.3452 448.439 81.1838 448.372 81.0318 448.282 80.8941 448.173 80.7707 448.044 80.6662 447.902 80.5855 447.75 80.5238 447.589 80.4905 447.465 80.4858 263.422 80.4858 263.546 80.4905 263.384 80.4858 263.218 80.5048 263.061 80.5523 262.91 80.6235 262.777 80.7185 262.658 80.8324 262.558 80.9606 262.482 81.1078 262.43 81.2645 262.401 81.4259 262.397 81.5114 262.397 90.6136 262.401 90.5281 262.401 90.6943 262.43 90.8557 262.482 91.0124 262.558 91.1596 262.658 91.2926 262.777 91.4065 262.91 91.5015 263.061 91.568 263.218 91.6154 263.384 91.6344Z" fill="#FFFFFF" transform="matrix(1 0 0 1.00039 0.0890625 0)"/><text fill="#12436D" font-family="Arial,Arial_MSFontService,sans-serif" font-weight="700" font-size="23" transform="matrix(0.474814 0 0 0.475 261.755 90)">UK Agriculture</text><text fill="#12436D" font-family="Arial,Arial_MSFontService,sans-serif" font-weight="700" font-size="23" transform="matrix(0.474814 0 0 0.475 340.574 90)">: </text><text fill="#12436D" font-family="Arial,Arial_MSFontService,sans-serif" font-weight="700" font-size="23" transform="matrix(0.474814 0 0 0.475 346.746 90)">methane emissions</text><path d="M298.801 157.012 440.02 157.012 439.977 157.012 440.143 157.002 440.305 156.974 440.462 156.912 440.604 156.831 440.732 156.727 440.841 156.603 440.927 156.461 440.993 156.309 441.031 156.152 441.046 155.986 441.046 155.986 441.046 146.884 441.046 146.884 441.031 146.722 440.993 146.561 440.927 146.409 440.841 146.271 440.732 146.148 440.604 146.043 440.462 145.958 440.305 145.901 440.143 145.868 440.02 145.858 298.801 145.858 298.924 145.868 298.763 145.863 298.597 145.882 298.44 145.925 298.288 145.996 298.155 146.091 298.036 146.205 297.937 146.338 297.861 146.485 297.808 146.642 297.78 146.803 297.775 146.884 297.775 155.986 297.78 155.905 297.78 156.067 297.808 156.233 297.861 156.39 297.937 156.537 298.036 156.665 298.155 156.779 298.288 156.874 298.44 156.945 298.597 156.993 298.763 157.012Z" fill="#FFFFFF" transform="matrix(1 0 0 1.00039 0.0890625 0)"/><text fill="#28A197" font-family="Arial,Arial_MSFontService,sans-serif" font-weight="700" font-size="23" transform="matrix(0.474814 0 0 0.475 297.565 155)">Enteric fermentation</text><text fill="#28A197" font-family="Arial,Arial_MSFontService,sans-serif" font-weight="700" font-size="23" transform="matrix(0.474814 0 0 0.475 405.823 155)">: </text><text fill="#28A197" font-family="Arial,Arial_MSFontService,sans-serif" font-weight="700" font-size="23" transform="matrix(0.474814 0 0 0.475 411.995 155)">cattle</text><path d="M297.3 229.649 441.52 229.649 441.482 229.649 441.644 229.644 441.805 229.611 441.962 229.554 442.104 229.468 442.233 229.364 442.342 229.24 442.432 229.103 442.494 228.951 442.532 228.789 442.546 228.623 442.546 228.623 442.546 219.526 442.546 219.526 442.532 219.36 442.494 219.198 442.432 219.046 442.342 218.908 442.233 218.785 442.104 218.681 441.962 218.6 441.805 218.538 441.644 218.505 441.52 218.5 297.3 218.5 297.424 218.505 297.262 218.5 297.096 218.519 296.939 218.567 296.788 218.638 296.655 218.733 296.536 218.847 296.436 218.975 296.36 219.122 296.308 219.279 296.279 219.44 296.275 219.526 296.275 228.623 296.279 228.542 296.279 228.709 296.308 228.87 296.36 229.027 296.436 229.174 296.536 229.307 296.655 229.421 296.788 229.516 296.939 229.582 297.096 229.63 297.262 229.649Z" fill="#FFFFFF" transform="matrix(1 0 0 1.00039 0.0890625 0)"/><text fill="#801650" font-family="Arial,Arial_MSFontService,sans-serif" font-weight="700" font-size="23" transform="matrix(0.474814 0 0 0.475 296.141 228)">Enteric fermentation</text><text fill="#801650" font-family="Arial,Arial_MSFontService,sans-serif" font-weight="700" font-size="23" transform="matrix(0.474814 0 0 0.475 404.398 228)">: </text><text fill="#801650" font-family="Arial,Arial_MSFontService,sans-serif" font-weight="700" font-size="23" transform="matrix(0.474814 0 0 0.475 410.571 228)">sheep</text><path d="M299.409 273.237 439.417 273.237 439.374 273.232 439.54 273.227 439.702 273.194 439.854 273.137 439.996 273.052 440.125 272.947 440.234 272.824 440.324 272.686 440.39 272.534 440.428 272.373 440.443 272.211 440.443 272.211 440.443 263.109 440.443 263.109 440.428 262.943 440.39 262.781 440.324 262.634 440.234 262.492 440.125 262.368 439.996 262.264 439.854 262.183 439.702 262.121 439.54 262.088 439.417 262.083 299.409 262.083 299.532 262.088 299.366 262.083 299.204 262.102 299.043 262.15 298.896 262.221 298.758 262.316 298.639 262.43 298.54 262.558 298.464 262.705 298.411 262.862 298.388 263.028 298.383 263.109 298.383 272.211 298.388 272.126 298.388 272.292 298.411 272.453 298.464 272.61 298.54 272.757 298.639 272.89 298.758 273.004 298.896 273.099 299.043 273.165 299.204 273.213 299.366 273.232Z" fill="#FFFFFF" transform="matrix(1 0 0 1.00039 0.0890625 0)"/><text fill="#505A5F" font-family="Arial,Arial_MSFontService,sans-serif" font-weight="700" font-size="23" transform="matrix(0.474814 0 0 0.475 298.277 272)">Enteric fermentation</text><text fill="#505A5F" font-family="Arial,Arial_MSFontService,sans-serif" font-weight="700" font-size="23" transform="matrix(0.474814 0 0 0.475 406.535 272)">: </text><text fill="#505A5F" font-family="Arial,Arial_MSFontService,sans-serif" font-weight="700" font-size="23" transform="matrix(0.474814 0 0 0.475 412.708 272)">other</text><path d="M328.676 244.178 438.088 244.178 438.045 244.178 438.211 244.173 438.372 244.14 438.524 244.078 438.667 243.998 438.795 243.893 438.904 243.77 438.994 243.632 439.056 243.48 439.099 243.319 439.113 243.152 439.113 243.152 439.113 234.055 439.113 234.055 439.099 233.889 439.056 233.727 438.994 233.575 438.904 233.438 438.795 233.314 438.667 233.21 438.524 233.124 438.372 233.067 438.211 233.034 438.088 233.029 328.676 233.029 328.799 233.034 328.633 233.029 328.467 233.048 328.31 233.096 328.163 233.162 328.026 233.257 327.907 233.371 327.807 233.504 327.731 233.651 327.679 233.808 327.65 233.97 327.65 234.055 327.65 243.152 327.65 243.072 327.65 243.238 327.679 243.399 327.731 243.556 327.807 243.703 327.907 243.831 328.026 243.945 328.163 244.04 328.31 244.112 328.467 244.159 328.633 244.178Z" fill="#FFFFFF" transform="matrix(1 0 0 1.00039 0.0890625 0)"/><text fill="#F46A25" font-family="Arial,Arial_MSFontService,sans-serif" font-weight="700" font-size="23" transform="matrix(0.474814 0 0 0.475 328.39 243)">Manure management</text><path d="M20.2081 18.5083 453.22 18.5083 453.22 282.187 20.2081 282.187Z" stroke="#333333" stroke-width="0.508051" stroke-linecap="round" stroke-linejoin="round" stroke-miterlimit="10" fill="none" transform="matrix(1 0 0 1.00039 0.0890625 0)"/></g><text fill="#4D4D4D" font-family="Arial,Arial_MSFontService,sans-serif" font-weight="400" font-size="25" transform="matrix(0.474814 0 0 0.475 9.24823 287)">0</text><text fill="#4D4D4D" font-family="Arial,Arial_MSFontService,sans-serif" font-weight="400" font-size="25" transform="matrix(0.474814 0 0 0.475 9.24823 250)">5</text><text fill="#4D4D4D" font-family="Arial,Arial_MSFontService,sans-serif" font-weight="400" font-size="25" transform="matrix(0.474814 0 0 0.475 2.60083 214)">10</text><text fill="#4D4D4D" font-family="Arial,Arial_MSFontService,sans-serif" font-weight="400" font-size="25" transform="matrix(0.474814 0 0 0.475 2.60083 178)">15</text><text fill="#4D4D4D" font-family="Arial,Arial_MSFontService,sans-serif" font-weight="400" font-size="25" transform="matrix(0.474814 0 0 0.475 2.60083 141)">20</text><text fill="#4D4D4D" font-family="Arial,Arial_MSFontService,sans-serif" font-weight="400" font-size="25" transform="matrix(0.474814 0 0 0.475 2.60083 105)">25</text><text fill="#4D4D4D" font-family="Arial,Arial_MSFontService,sans-serif" font-weight="400" font-size="25" transform="matrix(0.474814 0 0 0.475 2.60083 69)">30</text><text fill="#4D4D4D" font-family="Arial,Arial_MSFontService,sans-serif" font-weight="400" font-size="25" transform="matrix(0.474814 0 0 0.475 2.60083 32)">35</text><path d="M16.8464 282.187 20.2081 282.187" stroke="#000000" stroke-width="0.508051" stroke-linejoin="round" stroke-miterlimit="10" fill="none" transform="matrix(1 0 0 1.00039 0.0890625 0)"/><path d="M16.8464 245.868 20.2081 245.868" stroke="#000000" stroke-width="0.508051" stroke-linejoin="round" stroke-miterlimit="10" fill="none" transform="matrix(1 0 0 1.00039 0.0890625 0)"/><path d="M16.8464 209.545 20.2081 209.545" stroke="#000000" stroke-width="0.508051" stroke-linejoin="round" stroke-miterlimit="10" fill="none" transform="matrix(1 0 0 1.00039 0.0890625 0)"/><path d="M16.8464 173.227 20.2081 173.227" stroke="#000000" stroke-width="0.508051" stroke-linejoin="round" stroke-miterlimit="10" fill="none" transform="matrix(1 0 0 1.00039 0.0890625 0)"/><path d="M16.8464 136.908 20.2081 136.908" stroke="#000000" stroke-width="0.508051" stroke-linejoin="round" stroke-miterlimit="10" fill="none" transform="matrix(1 0 0 1.00039 0.0890625 0)"/><path d="M16.8464 100.589 20.2081 100.589" stroke="#000000" stroke-width="0.508051" stroke-linejoin="round" stroke-miterlimit="10" fill="none" transform="matrix(1 0 0 1.00039 0.0890625 0)"/><path d="M16.8464 64.2709 20.2081 64.2709" stroke="#000000" stroke-width="0.508051" stroke-linejoin="round" stroke-miterlimit="10" fill="none" transform="matrix(1 0 0 1.00039 0.0890625 0)"/><path d="M16.8464 27.9476 20.2081 27.9476" stroke="#000000" stroke-width="0.508051" stroke-linejoin="round" stroke-miterlimit="10" fill="none" transform="matrix(1 0 0 1.00039 0.0890625 0)"/><path d="M20.2081 282.187 453.22 282.187" stroke="#000000" stroke-width="0.508051" stroke-linejoin="round" stroke-miterlimit="10" fill="none" transform="matrix(1 0 0 1.00039 0.0890625 0)"/><path d="M20.2081 282.187 20.2081 285.553" stroke="#000000" stroke-width="0.508051" stroke-linejoin="round" stroke-miterlimit="10" fill="none" transform="matrix(1 0 0 1.00039 0.0890625 0)"/><path d="M90.0486 282.187 90.0486 285.553" stroke="#000000" stroke-width="0.508051" stroke-linejoin="round" stroke-miterlimit="10" fill="none" transform="matrix(1 0 0 1.00039 0.0890625 0)"/><path d="M159.889 282.187 159.889 285.553" stroke="#000000" stroke-width="0.508051" stroke-linejoin="round" stroke-miterlimit="10" fill="none" transform="matrix(1 0 0 1.00039 0.0890625 0)"/><path d="M229.729 282.187 229.729 285.553" stroke="#000000" stroke-width="0.508051" stroke-linejoin="round" stroke-miterlimit="10" fill="none" transform="matrix(1 0 0 1.00039 0.0890625 0)"/><path d="M299.57 282.187 299.57 285.553" stroke="#000000" stroke-width="0.508051" stroke-linejoin="round" stroke-miterlimit="10" fill="none" transform="matrix(1 0 0 1.00039 0.0890625 0)"/><path d="M369.41 282.187 369.41 285.553" stroke="#000000" stroke-width="0.508051" stroke-linejoin="round" stroke-miterlimit="10" fill="none" transform="matrix(1 0 0 1.00039 0.0890625 0)"/><path d="M439.251 282.187 439.251 285.553" stroke="#000000" stroke-width="0.508051" stroke-linejoin="round" stroke-miterlimit="10" fill="none" transform="matrix(1 0 0 1.00039 0.0890625 0)"/><path d="M34.1771 282.187 34.1771 285.553" stroke="#000000" stroke-width="0.508051" stroke-linejoin="round" stroke-miterlimit="10" fill="none" transform="matrix(1 0 0 1.00039 0.0890625 0)"/><path d="M48.1462 282.187 48.1462 285.553" stroke="#000000" stroke-width="0.508051" stroke-linejoin="round" stroke-miterlimit="10" fill="none" transform="matrix(1 0 0 1.00039 0.0890625 0)"/><path d="M62.1152 282.187 62.1152 285.553" stroke="#000000" stroke-width="0.508051" stroke-linejoin="round" stroke-miterlimit="10" fill="none" transform="matrix(1 0 0 1.00039 0.0890625 0)"/><path d="M76.0843 282.187 76.0843 285.553" stroke="#000000" stroke-width="0.508051" stroke-linejoin="round" stroke-miterlimit="10" fill="none" transform="matrix(1 0 0 1.00039 0.0890625 0)"/><path d="M104.018 282.187 104.018 285.553" stroke="#000000" stroke-width="0.508051" stroke-linejoin="round" stroke-miterlimit="10" fill="none" transform="matrix(1 0 0 1.00039 0.0890625 0)"/><path d="M117.987 282.187 117.987 285.553" stroke="#000000" stroke-width="0.508051" stroke-linejoin="round" stroke-miterlimit="10" fill="none" transform="matrix(1 0 0 1.00039 0.0890625 0)"/><path d="M131.956 282.187 131.956 285.553" stroke="#000000" stroke-width="0.508051" stroke-linejoin="round" stroke-miterlimit="10" fill="none" transform="matrix(1 0 0 1.00039 0.0890625 0)"/><path d="M145.925 282.187 145.925 285.553" stroke="#000000" stroke-width="0.508051" stroke-linejoin="round" stroke-miterlimit="10" fill="none" transform="matrix(1 0 0 1.00039 0.0890625 0)"/><path d="M173.858 282.187 173.858 285.553" stroke="#000000" stroke-width="0.508051" stroke-linejoin="round" stroke-miterlimit="10" fill="none" transform="matrix(1 0 0 1.00039 0.0890625 0)"/><path d="M187.827 282.187 187.827 285.553" stroke="#000000" stroke-width="0.508051" stroke-linejoin="round" stroke-miterlimit="10" fill="none" transform="matrix(1 0 0 1.00039 0.0890625 0)"/><path d="M201.796 282.187 201.796 285.553" stroke="#000000" stroke-width="0.508051" stroke-linejoin="round" stroke-miterlimit="10" fill="none" transform="matrix(1 0 0 1.00039 0.0890625 0)"/><path d="M215.765 282.187 215.765 285.553" stroke="#000000" stroke-width="0.508051" stroke-linejoin="round" stroke-miterlimit="10" fill="none" transform="matrix(1 0 0 1.00039 0.0890625 0)"/><path d="M243.699 282.187 243.699 285.553" stroke="#000000" stroke-width="0.508051" stroke-linejoin="round" stroke-miterlimit="10" fill="none" transform="matrix(1 0 0 1.00039 0.0890625 0)"/><path d="M257.668 282.187 257.668 285.553" stroke="#000000" stroke-width="0.508051" stroke-linejoin="round" stroke-miterlimit="10" fill="none" transform="matrix(1 0 0 1.00039 0.0890625 0)"/><path d="M271.637 282.187 271.637 285.553" stroke="#000000" stroke-width="0.508051" stroke-linejoin="round" stroke-miterlimit="10" fill="none" transform="matrix(1 0 0 1.00039 0.0890625 0)"/><path d="M285.606 282.187 285.606 285.553" stroke="#000000" stroke-width="0.508051" stroke-linejoin="round" stroke-miterlimit="10" fill="none" transform="matrix(1 0 0 1.00039 0.0890625 0)"/><path d="M313.539 282.187 313.539 285.553" stroke="#000000" stroke-width="0.508051" stroke-linejoin="round" stroke-miterlimit="10" fill="none" transform="matrix(1 0 0 1.00039 0.0890625 0)"/><path d="M327.508 282.187 327.508 285.553" stroke="#000000" stroke-width="0.508051" stroke-linejoin="round" stroke-miterlimit="10" fill="none" transform="matrix(1 0 0 1.00039 0.0890625 0)"/><path d="M341.477 282.187 341.477 285.553" stroke="#000000" stroke-width="0.508051" stroke-linejoin="round" stroke-miterlimit="10" fill="none" transform="matrix(1 0 0 1.00039 0.0890625 0)"/><path d="M355.441 282.187 355.441 285.553" stroke="#000000" stroke-width="0.508051" stroke-linejoin="round" stroke-miterlimit="10" fill="none" transform="matrix(1 0 0 1.00039 0.0890625 0)"/><path d="M383.379 282.187 383.379 285.553" stroke="#000000" stroke-width="0.508051" stroke-linejoin="round" stroke-miterlimit="10" fill="none" transform="matrix(1 0 0 1.00039 0.0890625 0)"/><path d="M397.348 282.187 397.348 285.553" stroke="#000000" stroke-width="0.508051" stroke-linejoin="round" stroke-miterlimit="10" fill="none" transform="matrix(1 0 0 1.00039 0.0890625 0)"/><path d="M411.318 282.187 411.318 285.553" stroke="#000000" stroke-width="0.508051" stroke-linejoin="round" stroke-miterlimit="10" fill="none" transform="matrix(1 0 0 1.00039 0.0890625 0)"/><path d="M425.282 282.187 425.282 285.553" stroke="#000000" stroke-width="0.508051" stroke-linejoin="round" stroke-miterlimit="10" fill="none" transform="matrix(1 0 0 1.00039 0.0890625 0)"/><text fill="#4D4D4D" font-family="Arial,Arial_MSFontService,sans-serif" font-weight="400" font-size="25" transform="matrix(0.474814 0 0 0.475 7.00236 299)">1990</text><text fill="#4D4D4D" font-family="Arial,Arial_MSFontService,sans-serif" font-weight="400" font-size="25" transform="matrix(0.474814 0 0 0.475 76.8428 299)">1995</text><text fill="#4D4D4D" font-family="Arial,Arial_MSFontService,sans-serif" font-weight="400" font-size="25" transform="matrix(0.474814 0 0 0.475 146.683 299)">2000</text><text fill="#4D4D4D" font-family="Arial,Arial_MSFontService,sans-serif" font-weight="400" font-size="25" transform="matrix(0.474814 0 0 0.475 216.524 299)">2005</text><text fill="#4D4D4D" font-family="Arial,Arial_MSFontService,sans-serif" font-weight="400" font-size="25" transform="matrix(0.474814 0 0 0.475 286.364 299)">2010</text><text fill="#4D4D4D" font-family="Arial,Arial_MSFontService,sans-serif" font-weight="400" font-size="25" transform="matrix(0.474814 0 0 0.475 356.205 299)">2015</text><text fill="#4D4D4D" font-family="Arial,Arial_MSFontService,sans-serif" font-weight="400" font-size="25" transform="matrix(0.474814 0 0 0.475 426.045 299)">2020</text><text font-family="Arial,Arial_MSFontService,sans-serif" font-weight="400" font-size="25" transform="matrix(0.474814 0 0 0.475 2.71479 11)">MtCO</text><text font-family="Arial,Arial_MSFontService,sans-serif" font-weight="400" font-size="18" transform="matrix(0.474814 0 0 0.475 33.7012 13)">2</text><text font-family="Arial,Arial_MSFontService,sans-serif" font-weight="400" font-size="25" transform="matrix(0.474814 0 0 0.475 38.3259 11)">e</text></g></svg>